<svg width="20" height="20" viewBox="0 0 20 20" fill="none" xmlns="http://www.w3.org/2000/svg">
<path d="M6.8 4H13.2M6.8 4C5.11984 4 4.27976 4 3.63803 4.32698C3.07354 4.6146 2.6146 5.07354 2.32698 5.63803C2 6.27976 2 7.11984 2 8.8V14.2C2 15.8802 2 16.7202 2.32698 17.362C2.6146 17.9265 3.07354 18.3854 3.63803 18.673C4.27976 19 5.11984 19 6.8 19H10.0118C11.0593 19 12.1076 18.9869 13.1566 18.971C14.8493 18.9455 15.6957 18.9328 16.3249 18.6057C16.8841 18.3151 17.326 17.8701 17.6127 17.309C17.9355 16.6775 17.9423 15.8372 17.9561 14.1564L18 8.8C18 7.11984 18 6.27976 17.673 5.63803C17.3854 5.07354 16.9265 4.6146 16.362 4.32698C15.7202 4 14.8802 4 13.2 4M6.8 4V2M6.8 4V6M13.2 4V2M13.2 4V6" stroke="white" stroke-width="2" stroke-linecap="round"/>
</svg>
